<svg width="16" height="16" viewBox="0 0 16 16" fill="none" xmlns="http://www.w3.org/2000/svg">
<path d="M7.33301 8.66683L7.33301 6.00016C7.33301 5.63197 7.63148 5.3335 7.99967 5.3335C8.36786 5.3335 8.66634 5.63197 8.66634 6.00016L8.66634 8.66683C8.66634 9.03502 8.36787 9.3335 7.99968 9.3335C7.63149 9.3335 7.33301 9.03502 7.33301 8.66683Z" fill="#D2092D"/>
<path d="M7.99968 12.0002C8.36787 12.0002 8.66634 11.7017 8.66634 11.3335C8.66634 10.9653 8.36787 10.6668 7.99968 10.6668C7.63149 10.6668 7.33301 10.9653 7.33301 11.3335C7.33301 11.7017 7.63149 12.0002 7.99968 12.0002Z" fill="#D2092D"/>
<path fill-rule="evenodd" clip-rule="evenodd" d="M7.99968 1.3335C8.50471 1.3335 8.96639 1.61883 9.19225 2.07054L14.5256 12.7372C14.7322 13.1505 14.7102 13.6414 14.4672 14.0345C14.2243 14.4276 13.7951 14.6668 13.333 14.6668H2.66634C2.20424 14.6668 1.77508 14.4276 1.53214 14.0345C1.2892 13.6414 1.26711 13.1505 1.47377 12.7372L6.80711 2.07054C7.03296 1.61883 7.49465 1.3335 7.99968 1.3335ZM2.66634 13.3335H13.333L7.99968 2.66683L2.66634 13.3335Z" fill="#D2092D"/>
</svg>
